HIERARCHY
ROOT newVegas:Hips
{
	OFFSET 0.000000 96.330055 9.825774
	CHANNELS 6 Xposition Yposition Zposition Xrotation Yrotation Zrotation
	JOINT newVegas:Pelvis
	{
		OFFSET 0.000000 0.000000 0.000000
		CHANNELS 3 Xrotation Yrotation Zrotation
		JOINT newVegas:LeftUpLeg
		{
			OFFSET 18.735231 -5.666687 -4.541196
			CHANNELS 3 Xrotation Yrotation Zrotation
			JOINT newVegas:LeftLeg
			{
				OFFSET 2.165257 -31.864662 0.493051
				CHANNELS 3 Xrotation Yrotation Zrotation
				JOINT newVegas:LeftFoot
				{
					OFFSET 2.207560 -31.861769 -4.336291
					CHANNELS 3 Xrotation Yrotation Zrotation
					JOINT newVegas:LeftToeBase
					{
						OFFSET 0.942982 -26.721954 15.023476
						CHANNELS 3 Xrotation Yrotation Zrotation
						End Site
						{
							OFFSET 0.000000 30.670130 0.000000
						}
					}
				}
				JOINT newVegas:Left_PantLeg
				{
					OFFSET 1.281483 -8.977982 -1.108870
					CHANNELS 3 Xrotation Yrotation Zrotation
					End Site
					{
						OFFSET 0.000000 20.683853 0.000000
					}
				}
			}
		}
		JOINT newVegas:RightUpLeg
		{
			OFFSET -18.735231 -5.666687 -4.541196
			CHANNELS 3 Xrotation Yrotation Zrotation
			JOINT newVegas:RightLeg
			{
				OFFSET -2.167511 -31.864510 0.493069
				CHANNELS 3 Xrotation Yrotation Zrotation
				JOINT newVegas:RightFoot
				{
					OFFSET -2.205305 -31.861921 -4.336310
					CHANNELS 3 Xrotation Yrotation Zrotation
					JOINT newVegas:RightToeBase
					{
						OFFSET -0.942982 -26.721954 15.023476
						CHANNELS 3 Xrotation Yrotation Zrotation
						End Site
						{
							OFFSET 0.000000 30.670130 0.000000
						}
					}
				}
				JOINT newVegas:Right_PantLeg
				{
					OFFSET -1.279257 -8.978161 -1.108887
					CHANNELS 3 Xrotation Yrotation Zrotation
					End Site
					{
						OFFSET 0.000000 20.683781 0.000000
					}
				}
			}
		}
	}
	JOINT newVegas:Spine
	{
		OFFSET 0.000000 10.200043 -0.299546
		CHANNELS 3 Xrotation Yrotation Zrotation
		JOINT newVegas:Spine1
		{
			OFFSET 0.000000 11.900047 -1.516603
			CHANNELS 3 Xrotation Yrotation Zrotation
			JOINT newVegas:Spine2
			{
				OFFSET 0.000000 13.600052 -2.842519
				CHANNELS 3 Xrotation Yrotation Zrotation
				JOINT newVegas:Neck
				{
					OFFSET 0.000000 9.624100 -2.890091
					CHANNELS 3 Xrotation Yrotation Zrotation
					JOINT newVegas:Head
					{
						OFFSET 0.000000 14.068771 -1.351861
						CHANNELS 3 Xrotation Yrotation Zrotation
						JOINT newVegas:Hair_Back
						{
							OFFSET 0.000000 3.231888 -17.524775
							CHANNELS 3 Xrotation Yrotation Zrotation
							End Site
							{
								OFFSET 0.000000 19.849899 0.000000
							}
						}
						JOINT newVegas:Hair_Front
						{
							OFFSET 0.000000 31.260452 4.573765
							CHANNELS 3 Xrotation Yrotation Zrotation
							JOINT newVegas:Hair_Front1
							{
								OFFSET -0.000000 2.284073 11.993284
								CHANNELS 3 Xrotation Yrotation Zrotation
								JOINT newVegas:Hair_Front2
								{
									OFFSET -0.000000 2.284073 11.993282
									CHANNELS 3 Xrotation Yrotation Zrotation
									End Site
									{
										OFFSET 0.000000 12.208847 0.000000
									}
								}
							}
						}
						JOINT newVegas:Jowel
						{
							OFFSET 0.000000 -7.458237 6.864121
							CHANNELS 3 Xrotation Yrotation Zrotation
							End Site
							{
								OFFSET 0.000000 19.849899 0.000000
							}
						}
					}
				}
				JOINT newVegas:LeftShoulder
				{
					OFFSET 15.263037 10.923431 -0.547705
					CHANNELS 3 Xrotation Yrotation Zrotation
					JOINT newVegas:LeftArm
					{
						OFFSET 25.438639 -2.830658 -13.032501
						CHANNELS 3 Xrotation Yrotation Zrotation
						JOINT newVegas:LeftForeArm
						{
							OFFSET 29.593842 0.000000 -4.673203
							CHANNELS 3 Xrotation Yrotation Zrotation
							JOINT newVegas:LeftHand
							{
								OFFSET 27.832886 0.000000 0.954267
								CHANNELS 3 Xrotation Yrotation Zrotation
								JOINT newVegas:LeftHandThumb1
								{
									OFFSET 4.767456 -2.676666 6.397403
									CHANNELS 3 Xrotation Yrotation Zrotation
									JOINT newVegas:LeftHandThumb2
									{
										OFFSET 6.625809 -0.223526 2.471421
										CHANNELS 3 Xrotation Yrotation Zrotation
										JOINT newVegas:LeftHandThumb3
										{
											OFFSET 6.481201 0.059357 1.536795
											CHANNELS 3 Xrotation Yrotation Zrotation
											End Site
											{
												OFFSET 0.000000 6.661179 0.000000
											}
										}
									}
								}
								JOINT newVegas:LeftHandIndex1
								{
									OFFSET 18.761932 0.178406 4.531118
									CHANNELS 3 Xrotation Yrotation Zrotation
									JOINT newVegas:LeftHandIndex2
									{
										OFFSET 3.171219 -0.350479 0.097670
										CHANNELS 3 Xrotation Yrotation Zrotation
										JOINT newVegas:LeftHandIndex3
										{
											OFFSET 3.807625 -0.034592 0.457391
											CHANNELS 3 Xrotation Yrotation Zrotation
											End Site
											{
												OFFSET 0.000000 3.835159 0.000000
											}
										}
									}
								}
								JOINT newVegas:LeftHandMiddle1
								{
									OFFSET 18.461426 0.243439 -0.695649
									CHANNELS 3 Xrotation Yrotation Zrotation
									JOINT newVegas:LeftHandMiddle2
									{
										OFFSET 3.308960 -0.304459 -0.112251
										CHANNELS 3 Xrotation Yrotation Zrotation
										JOINT newVegas:LeftHandMiddle3
										{
											OFFSET 4.584320 0.057678 -0.330443
											CHANNELS 3 Xrotation Yrotation Zrotation
											End Site
											{
												OFFSET 0.000000 4.596573 0.000000
											}
										}
									}
								}
								JOINT newVegas:LeftHandRing1
								{
									OFFSET 17.563904 -0.015564 -4.860666
									CHANNELS 3 Xrotation Yrotation Zrotation
									JOINT newVegas:LeftHandRing2
									{
										OFFSET 2.582436 -0.710159 -0.544994
										CHANNELS 3 Xrotation Yrotation Zrotation
										JOINT newVegas:LeftHandRing3
										{
											OFFSET 3.050346 0.119141 -0.884829
											CHANNELS 3 Xrotation Yrotation Zrotation
											End Site
											{
												OFFSET 0.000000 3.178314 0.000000
											}
										}
									}
								}
								JOINT newVegas:LeftHandPinky1
								{
									OFFSET 15.713013 -1.058273 -8.049927
									CHANNELS 3 Xrotation Yrotation Zrotation
									JOINT newVegas:LeftHandPinky2
									{
										OFFSET 2.262558 -0.308899 -1.109793
										CHANNELS 3 Xrotation Yrotation Zrotation
										JOINT newVegas:LeftHandPinky3
										{
											OFFSET 2.240669 -0.150864 -1.296448
											CHANNELS 3 Xrotation Yrotation Zrotation
											End Site
											{
												OFFSET 0.000000 2.593094 0.000000
											}
										}
									}
								}
							}
							JOINT newVegas:Left_Sleeve
							{
								OFFSET 0.247482 -0.649780 0.586459
								CHANNELS 3 Xrotation Yrotation Zrotation
								End Site
								{
									OFFSET 0.000000 15.991226 0.000000
								}
							}
							JOINT newVegas:Left_CapeC
							{
								OFFSET 15.944374 -8.608810 -6.393338
								CHANNELS 3 Xrotation Yrotation Zrotation
								JOINT newVegas:Left_CapeC1
								{
									OFFSET 0.000000 -8.688515 0.000000
									CHANNELS 3 Xrotation Yrotation Zrotation
									End Site
									{
										OFFSET 0.000000 8.688515 0.000000
									}
								}
							}
						}
						JOINT newVegas:Left_CapeB
						{
							OFFSET 24.694458 -8.608810 -11.066542
							CHANNELS 3 Xrotation Yrotation Zrotation
							JOINT newVegas:Left_CapeB1
							{
								OFFSET 0.000008 -8.688515 0.000000
								CHANNELS 3 Xrotation Yrotation Zrotation
								End Site
								{
									OFFSET 0.000000 8.688515 0.000000
								}
							}
						}
						JOINT newVegas:Left_CapeA
						{
							OFFSET 3.431450 -8.608810 -11.066542
							CHANNELS 3 Xrotation Yrotation Zrotation
							JOINT newVegas:Left_CapeA1
							{
								OFFSET 0.000000 -8.688515 0.000000
								CHANNELS 3 Xrotation Yrotation Zrotation
								End Site
								{
									OFFSET 0.000000 8.688515 0.000000
								}
							}
						}
					}
				}
				JOINT newVegas:RightShoulder
				{
					OFFSET -15.263037 10.923431 -0.547705
					CHANNELS 3 Xrotation Yrotation Zrotation
					JOINT newVegas:RightArm
					{
						OFFSET -25.438639 -2.830658 -13.032501
						CHANNELS 3 Xrotation Yrotation Zrotation
						JOINT newVegas:RightForeArm
						{
							OFFSET -29.593842 0.000000 -4.673203
							CHANNELS 3 Xrotation Yrotation Zrotation
							JOINT newVegas:RightHand
							{
								OFFSET -27.832886 0.000000 0.954267
								CHANNELS 3 Xrotation Yrotation Zrotation
								JOINT newVegas:RightHandThumb1
								{
									OFFSET -4.767456 -2.676666 6.397403
									CHANNELS 3 Xrotation Yrotation Zrotation
									JOINT newVegas:RightHandThumb2
									{
										OFFSET -6.625809 -0.223526 2.471421
										CHANNELS 3 Xrotation Yrotation Zrotation
										JOINT newVegas:RightHandThumb3
										{
											OFFSET -6.481201 0.059357 1.536795
											CHANNELS 3 Xrotation Yrotation Zrotation
											End Site
											{
												OFFSET 0.000000 6.661179 0.000000
											}
										}
									}
								}
								JOINT newVegas:RightHandIndex1
								{
									OFFSET -18.761932 0.178406 4.531118
									CHANNELS 3 Xrotation Yrotation Zrotation
									JOINT newVegas:RightHandIndex2
									{
										OFFSET -3.171219 -0.350479 0.097670
										CHANNELS 3 Xrotation Yrotation Zrotation
										JOINT newVegas:RightHandIndex3
										{
											OFFSET -3.807625 -0.034592 0.457391
											CHANNELS 3 Xrotation Yrotation Zrotation
											End Site
											{
												OFFSET 0.000000 3.835159 0.000000
											}
										}
									}
								}
								JOINT newVegas:RightHandMiddle1
								{
									OFFSET -18.461426 0.243439 -0.695648
									CHANNELS 3 Xrotation Yrotation Zrotation
									JOINT newVegas:RightHandMiddle2
									{
										OFFSET -3.308960 -0.304459 -0.112251
										CHANNELS 3 Xrotation Yrotation Zrotation
										JOINT newVegas:RightHandMiddle3
										{
											OFFSET -4.584320 0.057678 -0.330443
											CHANNELS 3 Xrotation Yrotation Zrotation
											End Site
											{
												OFFSET 0.000000 4.596573 0.000000
											}
										}
									}
								}
								JOINT newVegas:RightHandRing1
								{
									OFFSET -17.563904 -0.015564 -4.860666
									CHANNELS 3 Xrotation Yrotation Zrotation
									JOINT newVegas:RightHandRing2
									{
										OFFSET -2.582436 -0.710159 -0.544992
										CHANNELS 3 Xrotation Yrotation Zrotation
										JOINT newVegas:RightHandRing3
										{
											OFFSET -3.050346 0.119141 -0.884830
											CHANNELS 3 Xrotation Yrotation Zrotation
											End Site
											{
												OFFSET 0.000000 3.178329 0.000000
											}
										}
									}
								}
								JOINT newVegas:RightHandPinky1
								{
									OFFSET -15.713013 -1.058273 -8.049929
									CHANNELS 3 Xrotation Yrotation Zrotation
									JOINT newVegas:RightHandPinky2
									{
										OFFSET -2.262558 -0.308899 -1.109791
										CHANNELS 3 Xrotation Yrotation Zrotation
										JOINT newVegas:RightHandPinky3
										{
											OFFSET -2.240669 -0.150864 -1.296448
											CHANNELS 3 Xrotation Yrotation Zrotation
											End Site
											{
												OFFSET 0.000000 2.593094 0.000000
											}
										}
									}
								}
							}
							JOINT newVegas:Right_CapeC
							{
								OFFSET -15.944374 -8.608810 -6.393338
								CHANNELS 3 Xrotation Yrotation Zrotation
								JOINT newVegas:Right_CapeC1
								{
									OFFSET 0.000000 -8.688515 0.000000
									CHANNELS 3 Xrotation Yrotation Zrotation
									End Site
									{
										OFFSET 0.000000 8.688515 0.000000
									}
								}
							}
							JOINT newVegas:Right_Sleeve
							{
								OFFSET -0.247482 -0.649963 0.586505
								CHANNELS 3 Xrotation Yrotation Zrotation
								End Site
								{
									OFFSET 0.000000 15.991287 0.000000
								}
							}
						}
						JOINT newVegas:Right_CapeA
						{
							OFFSET -3.431450 -8.608810 -11.066542
							CHANNELS 3 Xrotation Yrotation Zrotation
							JOINT newVegas:Right_CapeA1
							{
								OFFSET 0.000000 -8.688515 0.000000
								CHANNELS 3 Xrotation Yrotation Zrotation
								End Site
								{
									OFFSET 0.000000 8.688515 0.000000
								}
							}
						}
						JOINT newVegas:Right_CapeB
						{
							OFFSET -24.694321 -8.608810 -11.066542
							CHANNELS 3 Xrotation Yrotation Zrotation
							JOINT newVegas:Right_CapeB1
							{
								OFFSET -0.000015 -8.688515 0.000002
								CHANNELS 3 Xrotation Yrotation Zrotation
								End Site
								{
									OFFSET 0.000000 8.688515 0.000000
								}
							}
						}
					}
				}
				JOINT newVegas:Left_Collar
				{
					OFFSET 18.625118 8.655487 8.828113
					CHANNELS 3 Xrotation Yrotation Zrotation
					JOINT newVegas:Left_Collar1
					{
						OFFSET 14.783401 10.540359 -1.259481
						CHANNELS 3 Xrotation Yrotation Zrotation
						End Site
						{
							OFFSET 0.000000 18.199844 0.000000
						}
					}
				}
				JOINT newVegas:Collar_Back
				{
					OFFSET 0.000000 15.630692 -20.132616
					CHANNELS 3 Xrotation Yrotation Zrotation
					End Site
					{
						OFFSET 0.000000 22.523010 0.000000
					}
				}
				JOINT newVegas:Left_Peck
				{
					OFFSET 17.239555 -5.132629 25.482586
					CHANNELS 3 Xrotation Yrotation Zrotation
					End Site
					{
						OFFSET 0.000000 22.523026 0.000000
					}
				}
				JOINT newVegas:Right_Peck
				{
					OFFSET -17.239599 -5.132195 25.482594
					CHANNELS 3 Xrotation Yrotation Zrotation
					End Site
					{
						OFFSET 0.000000 22.523018 0.000000
					}
				}
				JOINT newVegas:Right_Collar
				{
					OFFSET -18.625099 8.655807 8.828094
					CHANNELS 3 Xrotation Yrotation Zrotation
					JOINT newVegas:Right_Collar1
					{
						OFFSET -14.783405 10.539993 -1.259501
						CHANNELS 3 Xrotation Yrotation Zrotation
						End Site
						{
							OFFSET 0.000000 18.199646 0.000000
						}
					}
				}
			}
		}
		JOINT newVegas:Belly
		{
			OFFSET 0.000000 -6.540390 9.014252
			CHANNELS 3 Xrotation Yrotation Zrotation
			End Site
			{
				OFFSET 0.000000 11.566666 0.000000
			}
		}
	}
	JOINT newVegas:ElvisFacialAnim_Joint
	{
		OFFSET 1.000000 -95.330055 -8.825774
		CHANNELS 3 Xrotation Yrotation Zrotation
		End Site
		{
			OFFSET 0.000000 35.315800 0.000000
		}
	}
}
MOTION
Frames: 4
Frame Time: 0.016667
1.321301 93.629578 4.497096 -0.383939 -0.140785 -1.452018 0.000000 0.000000 0.000000 -10.487621 5.351916 -3.137967 28.080663 -4.446343 -1.116222 -16.517709 -2.951983 7.924085 0.000000 0.000000 -0.000000 -0.000000 0.000000 0.000001 -9.890378 -3.695444 4.993811 23.742122 4.131554 -0.409404 -12.969040 0.857882 -4.669217 0.000000 -0.000000 0.000000 0.000001 -0.000000 -0.000000 -9.197044 1.318110 0.971160 7.246685 -0.041692 -1.878294 7.251813 0.041102 -1.863931 0.908331 -0.417718 1.206710 0.908335 -0.417718 1.206712 -0.000000 0.000000 -0.000000 0.908336 -0.417718 1.206712 0.908263 -0.417718 1.206710 0.000000 0.000000 -0.000000 -0.000000 0.000000 -0.000000 0.892942 -0.363511 -11.998575 7.395451 -40.559562 -60.407880 -0.000005 -9.471836 0.000007 -18.575222 -5.224203 6.516867 8.319701 17.390889 -17.063935 0.507210 9.763390 -3.849534 -0.000001 0.000000 0.000000 0.583040 4.388249 -10.535210 2.408457 5.001187 -17.452527 -0.000001 -0.000000 0.000000 -0.428171 1.015406 -17.140433 -1.591543 -1.264871 -23.534320 0.000000 0.000001 0.000000 -3.795432 -7.864834 -14.440179 -10.548536 1.254940 -40.843216 0.000002 0.000001 -0.000003 -11.018956 -15.581176 -29.611927 -16.572132 -1.643817 -31.061443 0.000000 -0.000001 0.000000 0.000004 0.000000 -0.000001 0.000004 0.000000 -0.000001 0.000004 0.000000 -0.000001 -0.000000 0.000000 0.000000 -0.000000 0.000000 0.000000 -0.000000 0.000000 0.000000 -0.000000 0.000000 0.000000 1.709892 -7.765213 12.112729 15.124715 54.758740 58.884823 -0.000002 17.300603 -0.000014 -39.689198 2.655654 -8.314180 14.181668 -13.116246 12.314344 2.068022 -8.020123 6.199329 -0.000002 -0.000000 -0.000000 0.788677 -4.515016 15.625637 2.808846 -4.961718 20.740607 -0.000001 -0.000000 0.000001 -0.475521 -1.154760 19.905622 -1.628127 1.196628 24.329241 0.000001 -0.000000 -0.000001 -3.759326 7.846339 14.282358 -10.137762 -0.764799 38.675946 -0.000001 0.000002 -0.000001 -12.595426 19.485416 27.561946 -14.144644 -0.962557 26.025184 0.000001 0.000001 -0.000003 -0.000001 0.000000 -0.000000 -0.000001 0.000000 -0.000000 -0.000001 0.000000 -0.000000 0.000000 -0.000000 0.000000 0.000000 -0.000000 0.000000 0.000000 -0.000000 0.000000 0.000000 -0.000000 0.000000 0.000000 0.000000 -0.000000 0.000000 0.000000 -0.000000 0.000000 0.000000 -0.000000 0.000000 0.000000 -0.000000 0.000000 0.000000 -0.000000 0.000000 0.000000 -0.000000 0.000000 0.000000 -0.000000 0.000001 -0.000000 -0.000000 0.000000 0.000000 0.000000 
1.310101 93.646774 4.456678 -0.475370 -0.242947 -1.400044 -0.000000 0.000000 0.000000 -10.142219 5.696108 -3.250245 27.813743 -4.412452 -1.094013 -16.570218 -2.486722 7.988636 0.000000 0.000000 -0.000000 0.000002 -0.000000 0.000000 -9.911611 -3.357874 4.963200 23.800528 3.857583 -0.343447 -12.945941 0.915010 -4.635770 -0.000000 0.000000 -0.000000 0.000000 0.000000 -0.000000 -9.012668 1.237995 1.013673 7.243670 -0.054629 -1.914695 7.249079 0.027204 -1.900876 0.909575 -0.406357 1.194203 0.909574 -0.406357 1.194203 -0.000000 0.000000 0.000000 0.909646 -0.406357 1.194204 0.909501 -0.406360 1.194203 -0.000000 -0.000000 0.000000 -0.000000 0.000000 0.000000 0.896145 -0.370154 -11.998565 7.296372 -40.834781 -60.474884 -0.000012 -8.855953 -0.000006 -20.350982 -5.056577 6.373037 8.360986 17.422363 -17.080770 0.509599 9.765486 -3.860311 -0.000000 0.000000 0.000000 0.617312 4.407079 -11.420817 2.409945 5.001020 -17.464847 -0.000000 0.000001 0.000002 -0.443329 1.055744 -18.018218 -1.591924 -1.264432 -23.541562 0.000001 0.000001 0.000001 -3.940706 -7.766212 -15.315630 -10.548711 1.255166 -40.844179 -0.000002 -0.000001 -0.000004 -11.272641 -15.369942 -30.485398 -16.570693 -1.644937 -31.058260 0.000002 -0.000001 -0.000000 0.000001 -0.000000 -0.000000 0.000001 -0.000000 -0.000000 0.000001 -0.000000 -0.000000 -0.000000 0.000000 -0.000000 -0.000000 0.000000 -0.000000 -0.000000 0.000000 -0.000000 -0.000000 0.000000 -0.000000 1.710733 -7.768551 12.112827 14.533005 54.706366 59.253066 0.000003 17.007854 0.000006 -39.202171 2.721741 -8.344911 14.204951 -13.147416 12.323451 2.068022 -8.020123 6.199329 -0.000001 0.000000 -0.000000 0.789252 -4.515290 15.639719 2.810641 -4.961424 20.755540 -0.000001 0.000000 -0.000001 -0.473577 -1.159648 19.915102 -1.628655 1.196010 24.339393 0.000000 0.000000 0.000001 -3.754454 7.836236 14.285657 -10.138532 -0.765763 38.680048 -0.000001 0.000000 -0.000004 -12.584840 19.471983 27.557634 -14.144589 -0.962521 26.025102 0.000000 -0.000001 0.000003 0.000001 0.000001 -0.000000 0.000001 0.000001 -0.000000 0.000001 0.000001 -0.000000 -0.000002 -0.000000 -0.000000 -0.000002 -0.000000 -0.000000 -0.000002 -0.000000 -0.000000 -0.000002 -0.000000 -0.000000 0.000000 0.000000 -0.000000 0.000000 0.000000 -0.000000 0.000000 0.000000 -0.000000 0.000000 0.000000 -0.000000 0.000000 0.000000 -0.000000 0.000000 0.000000 -0.000000 0.000000 0.000000 -0.000000 0.000001 -0.000000 -0.000000 -0.000000 -0.000000 0.000000 
1.300930 93.662460 4.413439 -0.587181 -0.274184 -1.394410 -0.000000 0.000000 -0.000000 -9.907077 5.953826 -3.285541 27.699084 -4.426424 -1.076700 -16.623748 -2.171118 8.039166 -0.000000 0.000000 -0.000000 -0.000000 0.000000 0.000000 -9.845014 -2.978319 4.986564 23.761835 3.518640 -0.249414 -12.899691 0.936934 -4.608595 -0.000000 0.000000 -0.000000 0.000001 -0.000000 -0.000001 -8.655193 1.145318 1.056069 7.158618 -0.064565 -1.933345 7.164083 0.014678 -1.920351 0.913176 -0.398356 1.183446 0.913176 -0.398356 1.183450 0.000000 -0.000000 -0.000000 0.913178 -0.398354 1.183447 0.913245 -0.398360 1.183448 0.000000 -0.000000 0.000000 0.000000 -0.000000 -0.000000 0.900167 -0.376596 -11.998554 7.019501 -40.740501 -60.594508 -0.000009 -8.498842 -0.000007 -22.335806 -4.800701 6.104984 8.393146 17.446846 -17.093904 0.511482 9.767150 -3.868863 0.000001 -0.000000 0.000000 0.618663 4.407802 -11.455434 2.411082 5.000895 -17.474216 -0.000001 0.000001 0.000001 -0.436449 1.073422 -18.038388 -1.591631 -1.264751 -23.536132 -0.000001 0.000001 0.000001 -3.919966 -7.730349 -15.315975 -10.544609 1.249670 -40.821377 -0.000002 0.000000 0.000001 -11.229203 -15.324100 -30.462589 -16.555858 -1.656552 -31.025267 0.000002 -0.000000 0.000001 -0.000001 0.000001 -0.000001 -0.000001 0.000001 -0.000001 -0.000001 0.000001 -0.000001 -0.000004 0.000000 -0.000000 -0.000004 0.000000 -0.000000 -0.000004 0.000000 -0.000000 -0.000004 0.000000 -0.000000 1.711240 -7.754986 12.112428 14.217235 54.658985 59.429578 -0.000009 16.891538 0.000001 -38.875944 2.782986 -8.357713 14.222547 -13.170966 12.330342 2.068025 -8.020123 6.199329 0.000001 -0.000001 -0.000000 0.789684 -4.515493 15.650248 2.812006 -4.961207 20.766852 -0.000001 0.000001 0.000001 -0.467294 -1.172775 19.912218 -1.628526 1.196162 24.336845 0.000000 -0.000001 -0.000003 -3.734703 7.809458 14.264420 -10.134948 -0.761293 38.661012 0.000000 -0.000000 0.000001 -12.541918 19.440083 27.513255 -14.130842 -0.953546 25.996933 -0.000001 -0.000002 -0.000002 0.000002 0.000001 0.000000 0.000002 0.000001 0.000000 0.000002 0.000001 0.000000 -0.000001 -0.000000 0.000000 -0.000001 -0.000000 0.000000 -0.000001 -0.000000 0.000000 -0.000001 -0.000000 0.000000 -0.000000 -0.000000 0.000000 0.000000 -0.000000 0.000000 -0.000000 -0.000000 0.000000 -0.000000 -0.000000 0.000000 -0.000000 -0.000000 0.000000 -0.000000 -0.000000 0.000000 0.000000 -0.000000 0.000000 0.000000 0.000000 -0.000000 -0.000000 0.000000 -0.000000 
1.293696 93.678001 4.364957 -0.710334 -0.259500 -1.416901 -0.000000 0.000000 0.000000 -9.744727 6.119856 -3.279976 27.673422 -4.418899 -1.064785 -16.672591 -1.959484 8.068460 -0.000000 0.000000 -0.000000 0.000001 0.000000 0.000001 -9.727779 -2.579857 5.039714 23.660632 3.144421 -0.135924 -12.833746 0.939392 -4.587619 -0.000000 -0.000000 0.000000 -0.000000 0.000000 0.000000 -8.171932 1.049498 1.106553 7.011704 -0.071746 -1.944895 7.017103 0.003845 -1.932846 0.919529 -0.392883 1.174243 0.919508 -0.392883 1.174242 -0.000000 -0.000000 -0.000000 0.919410 -0.392887 1.174242 0.919557 -0.392885 1.174243 0.000000 0.000000 0.000000 -0.000000 -0.000000 -0.000000 0.904812 -0.378311 -11.998550 6.629267 -40.418041 -60.734848 0.000002 -8.320781 0.000014 -24.515817 -4.474290 5.772031 8.419216 17.466665 -17.104564 0.513047 9.768530 -3.875933 -0.000001 -0.000001 0.000000 0.619747 4.408377 -11.483256 2.411979 5.000801 -17.481627 0.000000 -0.000000 0.000001 -0.424638 1.101146 -18.042722 -1.590746 -1.265752 -23.519430 0.000001 -0.000000 -0.000001 -3.881171 -7.674611 -15.287874 -10.536531 1.238890 -40.776564 -0.000003 0.000000 0.000001 -11.149626 -15.255593 -30.396531 -16.528479 -1.677916 -30.964403 0.000002 -0.000001 -0.000001 0.000004 -0.000000 0.000001 0.000004 -0.000000 0.000001 0.000004 -0.000000 0.000001 -0.000000 -0.000000 0.000000 -0.000000 -0.000000 0.000000 -0.000000 -0.000000 0.000000 -0.000000 -0.000000 0.000000 1.711478 -7.731766 12.111750 14.102405 54.616122 59.463101 -0.000011 16.904693 0.000019 -38.619252 2.832136 -8.343344 14.236296 -13.189351 12.335743 2.068023 -8.020122 6.199328 -0.000002 0.000001 -0.000000 0.790013 -4.515640 15.658414 2.813082 -4.961028 20.775830 0.000000 0.000000 0.000001 -0.456871 -1.193872 19.898470 -1.627811 1.197004 24.323120 0.000001 0.000002 -0.000000 -3.700871 7.766559 14.220593 -10.127387 -0.751854 38.620813 0.000000 -0.000000 0.000002 -12.468441 19.390081 27.431500 -14.104336 -0.936275 25.942657 0.000000 -0.000001 0.000000 -0.000000 -0.000000 -0.000000 -0.000000 -0.000000 -0.000000 -0.000000 -0.000000 -0.000000 -0.000000 -0.000001 0.000001 -0.000000 -0.000001 0.000001 -0.000000 -0.000001 0.000001 -0.000000 -0.000001 0.000001 0.000000 0.000000 0.000000 0.000000 0.000000 0.000000 0.000000 0.000000 0.000000 0.000000 0.000000 0.000000 0.000000 0.000000 0.000000 0.000000 0.000000 0.000000 0.000000 0.000000 0.000000 0.000000 -0.000000 -0.000000 -0.000000 0.000000 0.000000 
